<?xml version="1.0" encoding="UTF-8" standalone="no"?>
<!-- Created with Inkscape (http://www.inkscape.org/) -->

<svg
   xmlns:dc="http://purl.org/dc/elements/1.1/"
   xmlns:cc="http://creativecommons.org/ns#"
   xmlns:rdf="http://www.w3.org/1999/02/22-rdf-syntax-ns#"
   xmlns:svg="http://www.w3.org/2000/svg"
   xmlns="http://www.w3.org/2000/svg"
   xmlns:sodipodi="http://sodipodi.sourceforge.net/DTD/sodipodi-0.dtd"
   xmlns:inkscape="http://www.inkscape.org/namespaces/inkscape"
   width="200.69586mm"
   height="200.69586mm"
   viewBox="0 0 711.12707 711.12707"
   id="svg4215"
   version="1.1"
   inkscape:version="0.91 r13725"
   sodipodi:docname="praise-the-sun.svg">
  <defs
     id="defs4217" />
  <sodipodi:namedview
     id="base"
     pagecolor="#ffffff"
     bordercolor="#666666"
     borderopacity="1.0"
     inkscape:pageopacity="0.0"
     inkscape:pageshadow="2"
     inkscape:zoom="0.49497475"
     inkscape:cx="100.91136"
     inkscape:cy="197.40313"
     inkscape:document-units="px"
     inkscape:current-layer="layer1"
     showgrid="false"
     inkscape:snap-bbox="true"
     inkscape:bbox-nodes="false"
     inkscape:snap-bbox-edge-midpoints="true"
     fit-margin-top="0"
     fit-margin-left="0"
     fit-margin-right="0"
     fit-margin-bottom="0"
     inkscape:window-width="1600"
     inkscape:window-height="811"
     inkscape:window-x="0"
     inkscape:window-y="32"
     inkscape:window-maximized="1" />
  <metadata
     id="metadata4220">
    <rdf:RDF>
      <cc:Work
         rdf:about="">
        <dc:format>image/svg+xml</dc:format>
        <dc:type
           rdf:resource="http://purl.org/dc/dcmitype/StillImage" />
        <dc:title></dc:title>
      </cc:Work>
    </rdf:RDF>
  </metadata>
  <g
     inkscape:label="Layer 1"
     inkscape:groupmode="layer"
     id="layer1"
     transform="translate(-33.345188,-63.433014)">
    <rect
       style="opacity:1;fill:#222222;fill-opacity:1;stroke:#ff6b6b;stroke-width:0;stroke-linecap:square;stroke-linejoin:miter;stroke-miterlimit:4;stroke-dasharray:none;stroke-dashoffset:0;stroke-opacity:1"
       id="rect4769"
       width="709.12708"
       height="709.12708"
       x="34.345188"
       y="64.433014" />
    <path
       style="fill:#fdfd00"
       d="m 348.96724,773.44885 c -7.36564,-0.71053 -22.17386,-3.0671 -22.78094,-3.62534 -0.30238,-0.27804 3.4394,-9.48972 5.04701,-12.42495 2.76211,-5.04319 7.29587,-18.17666 8.79749,-25.48474 0.9266,-4.50959 2.08446,-8.96473 2.57302,-9.9003 0.48856,-0.93557 1.21777,-4.30555 1.62044,-7.48885 0.4027,-3.1833 1.63468,-8.79762 2.73772,-12.47623 1.10306,-3.67863 2.68401,-11.72896 3.51323,-17.88964 0.8292,-6.16069 2.01864,-12.6219 2.64317,-14.35824 0.62453,-1.73635 2.31184,-6.91977 3.74958,-11.5187 1.43774,-4.59893 3.35831,-9.18839 4.26791,-10.19879 2.02195,-2.24601 2.09208,-4.46247 0.46155,-14.58797 -0.69901,-4.34087 -1.85552,-16.57979 -2.56999,-27.19762 l -1.29905,-19.30514 -3.70086,-3.32 c -2.03548,-1.82601 -5.73137,-6.63486 -8.2131,-10.68633 -2.48173,-4.05149 -5.57063,-9.02375 -6.86423,-11.04948 -1.2936,-2.02575 -2.66997,-5.68181 -3.0586,-8.1246 -0.38861,-2.44278 -1.55026,-5.52086 -2.58143,-6.84015 -4.17783,-5.34521 -11.21494,-16.28103 -12.47215,-19.38197 -0.73649,-1.81662 -1.71165,-7.41212 -2.16701,-12.43448 -0.45537,-5.02235 -1.36207,-9.6685 -2.01491,-10.32478 -0.65283,-0.65626 -1.18697,-2.4553 -1.18697,-3.99783 0,-1.54254 -0.87387,-3.93397 -1.94197,-5.31427 -1.06807,-1.38032 -2.26708,-4.28548 -2.66447,-6.45591 -0.39738,-2.17044 -1.13473,-3.94625 -1.63857,-3.94625 -0.50383,0 -1.24589,-3.0961 -1.64901,-6.88018 -0.61261,-5.75059 -0.43356,-7.21273 1.09046,-8.90564 3.19474,-3.54873 1.33146,-5.26083 -5.72538,-5.26083 -6.25768,0 -6.31375,-0.0269 -6.31375,-3.02815 0,-3.8018 2.28671,-5.91608 4.90547,-4.53555 2.96561,1.56338 6.27658,-0.33544 7.59676,-4.35667 1.64222,-5.00219 1.87299,-102.53457 0.24982,-105.58348 -0.82312,-1.54609 -0.81976,-2.46059 0.0122,-3.29684 1.40021,-1.40757 1.18918,-14.44101 -0.27847,-17.19779 -0.57444,-1.07892 -1.75351,-1.96168 -2.62018,-1.96168 -2.8383,0 -14.18031,8.70925 -15.35634,11.79175 -0.99691,2.61306 -4.35117,2.05877 -4.7585,-0.78634 -0.19475,-1.3602 0.80512,-2.95199 2.77292,-4.41453 3.0216,-2.24572 8.45502,-9.51708 9.85743,-13.19182 1.25946,-3.30018 -2.55879,-5.75791 -10.40055,-6.69463 -3.93764,-0.47036 -8.41188,-0.72483 -9.94279,-0.56548 -1.53091,0.15934 -3.0567,-0.15469 -3.39063,-0.69787 -1.21299,-1.973 2.16144,-3.14669 10.47746,-3.64429 9.53253,-0.57041 12.9691,-1.91254 12.9691,-5.06506 0,-2.74137 -9.1285,-14.73574 -11.73667,-15.42139 -2.30305,-0.60543 -2.0919,-3.75706 0.2825,-4.21673 0.88386,-0.17111 3.65618,1.59064 6.16071,3.91499 5.83687,5.41696 13.20537,9.11744 15.06521,7.56576 1.83074,-1.52738 4.19238,-14.01112 3.36606,-17.79316 -0.46719,-2.13833 -0.17359,-3.47584 0.97297,-4.43241 2.40911,-2.00992 2.83306,-0.97628 3.14805,7.67541 0.3857,10.59353 2.04324,15.45817 5.26713,15.45817 1.36073,0 2.76937,-0.48033 3.13027,-1.06736 0.36093,-0.58705 2.4785,-2.00193 4.70574,-3.14418 2.22724,-1.14223 4.88771,-3.50321 5.91216,-5.24662 2.37813,-4.04706 6.64534,-4.46546 6.64534,-0.65159 0,1.38504 -0.6749,2.77859 -1.49975,3.09678 -2.10629,0.81252 -8.96843,11.87146 -8.96843,14.45341 0,3.03427 6.29784,5.4605 12.99535,5.00642 4.07598,-0.27635 5.7526,0.0858 7.21851,1.55949 1.59391,1.60234 1.68731,2.21209 0.56532,3.69063 -0.73923,0.97414 -1.45492,1.94592 -1.59042,2.15953 -0.13551,0.21359 -1.00921,-0.37851 -1.94156,-1.31577 -1.78427,-1.79367 -6.76702,-1.58598 -13.84504,0.57709 -2.73712,0.83647 -3.40216,1.59219 -3.40216,3.86605 0,3.326 6.18479,10.02266 8.84989,13.84774 2.6651,3.82508 1.46424,1.7818 2.6651,3.82508 1.20086,2.04329 -0.60764,2.49368 -1.83193,2.50329 -1.00756,0.009 -2.84502,0.2876 -4.08325,0.62155 -1.86849,0.50394 -2.37438,0.0439 -2.97503,-2.70522 -0.4961,-2.2706 -2.25733,-4.45096 -5.5998,-6.93243 -6.0364,-4.48142 -8.6448,-4.33396 -10.31279,0.58308 -1.63764,4.82753 -1.74427,15.48337 -0.16025,16.01415 0.8352,0.27986 0.67055,1.22817 -0.53416,3.07647 -1.52112,2.33375 -1.66646,5.0571 -1.14852,21.51901 0.32614,10.36592 0.5639,20.03098 0.52837,21.47794 -0.0356,1.44696 -0.0163,15.41667 0.0427,31.04379 0.12751,33.75286 0.55869,35.86545 7.13915,34.97817 4.53948,-0.61208 6.37372,0.55518 6.37372,4.05599 0,2.56853 -1.80549,3.58529 -6.36651,3.58529 -3.4799,0 -3.84843,1.45387 -1.51214,5.96564 3.62317,6.99693 10.50467,25.84596 12.95801,35.49313 2.27917,8.9623 1.07218,7.40012 18.02907,23.3346 3.12345,2.93514 6.98113,7.31547 8.57262,9.73408 3.15165,4.78964 6.27914,5.7092 8.05737,2.36905 1.52675,-2.86777 1.68116,-26.45999 0.19151,-29.2581 -0.65877,-1.23736 -1.19774,-5.08781 -1.19774,-8.55654 0,-5.61498 0.31337,-6.55459 2.85678,-8.56577 2.68168,-2.12054 3.59593,-2.21565 14.91713,-1.55192 11.84714,0.69456 12.13151,0.65809 16.08506,-2.06264 2.21358,-1.52335 3.83025,-2.16162 3.59258,-1.41839 -0.23767,0.74324 -2.75539,2.64254 -5.59493,4.22067 -4.02979,2.23963 -6.57983,2.87473 -11.61979,2.89392 -3.55134,0.0135 -7.2152,0.31706 -8.14191,0.67455 -2.69315,1.03891 -3.85358,4.12249 -2.69963,7.17362 0.95479,2.52451 1.47282,2.69973 7.98207,2.69973 5.26829,0 8.45656,0.67469 13.11111,2.77454 5.90844,2.66552 6.1501,2.92865 6.1501,6.69653 0,2.15708 0.52298,6.47274 1.16217,9.59035 0.6392,3.11761 1.46669,7.29566 1.83887,9.28456 0.61603,3.29211 1.14353,3.73588 5.88643,4.95219 7.18257,1.84195 9.6876,3.37061 10.43608,6.36851 0.37539,1.50356 2.03314,3.21602 4.00536,4.13755 7.5285,3.51768 11.22848,6.7623 15.44932,13.54787 3.52151,5.66132 9.05044,19.07524 9.85382,23.90672 0.3578,2.15182 1.38319,4.64891 2.27863,5.54908 1.47291,1.48065 1.95471,1.43373 5.05482,-0.49235 4.03559,-2.50727 6.94414,-2.68048 10.82101,-0.64444 4.84483,2.5444 8.26056,6.91897 15.68516,20.08825 18.08355,32.07554 25.16096,92.50179 12.86704,109.85796 -9.27493,13.0941 -27.04656,-5.99821 -39.07843,-41.98254 -3.70478,-11.08004 -5.28558,-17.92679 -7.53201,-32.62229 -0.66356,-4.34087 -1.95799,-9.07636 -2.87651,-10.52332 -1.61272,-2.54054 -5.35152,-13.47165 -6.50015,-19.00449 -0.68486,-3.29887 -4.66639,-9.32681 -7.19181,-10.88823 -2.59032,-1.60155 -4.11878,0.95031 -3.40754,5.68909 0.30405,2.02574 0.85202,8.28768 1.21772,13.91543 0.55103,8.47975 0.37223,10.68133 -1.04391,12.85405 -2.1366,3.27803 -2.16961,5.72322 -0.10624,7.8692 3.58073,3.72408 10.18962,15.52596 12.06968,21.55357 2.63622,8.45179 2.76166,22.33277 0.24173,26.74663 -1.68874,2.95798 -1.6843,3.94327 0.0798,17.71184 1.02738,8.0188 2.30315,17.45972 2.83503,20.97983 0.5319,3.5201 0.96707,8.11607 0.96707,10.21325 0,2.09719 1.23324,8.135 2.74053,13.41737 1.7689,6.19917 2.38083,9.96588 1.72599,10.62418 -0.94794,0.95293 -13.51014,2.97124 -28.0529,4.50712 l -6.31394,0.66682 -3.51621,-6.60333 c -1.93395,-3.63183 -4.86325,-9.13754 -6.5096,-12.23492 -1.64634,-3.09738 -2.99335,-6.46535 -2.99335,-7.48439 0,-1.01903 -1.42737,-6.53514 -3.17194,-12.25804 -1.74457,-5.72289 -3.7121,-12.20504 -4.37231,-14.40475 -2.78072,-9.26515 -5.68879,-9.16979 -9.64772,0.31633 -9.11874,21.84972 -11.6121,27.22715 -14.55701,31.39487 -1.82565,2.58371 -4.67662,6.6293 -6.3355,8.99021 -1.65888,2.36089 -3.58766,5.96043 -4.28616,7.99895 -1.45625,4.24986 -2.65985,4.48492 -16.25107,3.17383 z M 107.36207,639.59862 c -0.6909,-0.69454 -1.25618,-1.80501 -1.25618,-2.46773 0,-0.66272 -0.93011,-2.05111 -2.06691,-3.08531 -1.1368,-1.03422 -2.38283,-2.88098 -2.76894,-4.10394 -0.38612,-1.22294 -3.229068,-5.21796 -6.317669,-8.87783 -3.088589,-3.65985 -6.329804,-8.0426 -7.202692,-9.73947 -0.872877,-1.69687 -1.971472,-3.0852 -2.441294,-3.0852 -0.469832,0 -1.44916,-1.99615 -2.176288,-4.43588 -0.727129,-2.43972 -2.685963,-6.09923 -4.352966,-8.13225 -1.667002,-2.03303 -3.030909,-4.20682 -3.030909,-4.83068 0,-0.62387 -1.162018,-2.71762 -2.582266,-4.65278 -1.420236,-1.93518 -2.338649,-3.91474 -2.040914,-4.39905 0.297746,-0.48429 -0.630247,-2.89975 -2.062197,-5.36768 -1.43195,-2.46794 -3.362405,-6.74771 -4.289905,-9.51064 -0.9275,-2.76291 -2.713222,-6.77306 -3.968281,-8.91143 -3.046005,-5.18981 -5.916416,-13.72148 -5.958582,-17.71066 -0.01885,-1.77794 -0.688345,-5.32956 -1.487882,-7.89249 -0.799537,-2.56294 -2.751808,-8.75732 -4.338384,-13.76532 -1.586564,-5.00798 -2.587761,-9.88325 -2.224861,-10.83391 0.36289,-0.95067 2.23489,-2.39007 4.160006,-3.19867 1.925105,-0.8086 4.067603,-2.15746 4.761087,-2.99747 0.693496,-0.84001 3.879857,-3.11672 7.080802,-5.05937 3.200954,-1.94265 7.139192,-4.59758 8.751644,-5.89984 1.612453,-1.30227 3.408005,-2.36775 3.990097,-2.36775 0.582104,0 2.953613,-1.53903 5.270028,-3.42008 5.154377,-4.1856 10.107684,-7.58808 28.961126,-19.89373 32.16728,-20.99559 39.837,-26.09509 64.23451,-42.70879 9.99602,-6.80687 18.97519,-12.84969 19.95371,-13.42846 0.97852,-0.57879 5.90008,-3.89362 10.93682,-7.36632 5.03672,-3.47271 10.66064,-7.20954 12.49759,-8.30413 3.92966,-2.34154 26.17703,-16.88688 37.25487,-24.35726 14.50496,-9.78145 23.65594,-15.12617 25.97841,-15.173 3.81243,-0.0768 4.89083,3.44835 2.49754,8.16428 -2.40326,4.77918 -4.92669,9.2445 -7.69478,13.18701 -4.29563,6.03147 -19.61606,30.62283 -21.74381,34.90175 -1.15124,2.31513 -3.38367,6.17027 -4.96095,8.56697 -1.5773,2.39671 -4.24151,6.65866 -5.92048,9.471 -1.67898,2.81233 -3.85168,6.06043 -4.82821,7.21799 -0.97655,1.15757 -3.80745,5.65628 -6.2909,9.99715 -2.48344,4.34088 -7.47241,12.45236 -11.08658,18.02552 -3.61418,5.57317 -7.58425,12.08684 -8.82242,14.47483 -1.23816,2.38798 -2.62099,4.57153 -3.07294,4.85232 -0.45195,0.28079 -3.51303,5.13231 -6.8024,10.78115 -3.28937,5.64883 -9.81904,16.28389 -14.51039,23.63346 -4.69135,7.34956 -13.20846,20.84573 -18.92694,29.99146 -11.87775,18.9965 -18.87815,30.07024 -28.43837,44.98589 -3.69009,5.75721 -9.65154,15.14775 -13.24768,20.86786 -19.57433,31.13547 -17.71646,28.56523 -19.41427,26.85848 z m 611.13127,-86.08328 c -0.86361,-0.51211 -4.39662,-2.55609 -7.85112,-4.54221 -3.45449,-1.98612 -11.9337,-7.07932 -18.84269,-11.31823 -38.54921,-23.65133 -96.04504,-58.38264 -107.87984,-65.1666 -2.52425,-1.44696 -7.07691,-4.21049 -10.11701,-6.14118 -6.17783,-3.92338 -17.61928,-10.96937 -29.22215,-17.9959 -4.24038,-2.56791 -15.48239,-9.49633 -24.98225,-15.3965 -9.49986,-5.90016 -18.68567,-11.51156 -20.41291,-12.46975 -1.72725,-0.95819 -8.08666,-4.77057 -14.13202,-8.47195 -6.04536,-3.70138 -12.87584,-7.87705 -15.17884,-9.27924 -2.30299,-1.4022 -10.7822,-6.57557 -18.84268,-11.49636 -8.0605,-4.9208 -19.6759,-11.9747 -25.81203,-15.67536 -6.13612,-3.70066 -17.44173,-10.54062 -25.12358,-15.19989 -7.68186,-4.6593 -19.97869,-11.99932 -27.32631,-16.31116 -12.73254,-7.47188 -13.34646,-7.98782 -13.08521,-10.99671 0.26972,-3.10638 0.36642,-3.15529 6.0316,-3.05057 3.16662,0.0585 9.05496,0.89086 13.08521,1.84959 10.32094,2.45518 20.8463,4.62825 28.78744,5.94349 7.16541,1.18675 17.61915,3.22235 29.83426,5.80946 10.27279,2.17574 44.43962,8.87455 54.22222,10.63092 4.48927,0.806 15.08829,2.90324 23.55336,4.66052 8.46509,1.75728 18.453,3.6551 22.19537,4.21739 3.74237,0.5623 8.2175,1.45581 9.94476,1.98558 1.72724,0.52976 9.49985,1.95699 17.27246,3.17159 7.7726,1.21461 16.25182,2.8734 18.84268,3.68621 2.59088,0.81281 6.83048,1.77233 9.42135,2.13228 2.59088,0.35995 8.95028,1.56723 14.13202,2.68283 5.18174,1.1156 19.5493,3.96649 31.9279,6.33529 12.3786,2.36879 26.98168,5.23711 32.45129,6.37403 5.46962,1.13694 17.01076,3.46488 25.64699,5.17323 19.33083,3.82386 25.45156,5.078 33.49812,6.86369 3.45449,0.76664 7.75817,1.68355 9.56361,2.03761 2.63682,0.51708 3.91955,0.89365 3.93865,3.94081 0.0192,3.04716 0.0471,3.65961 0.24098,13.03434 0.56235,18.29109 -0.21418,25.77444 -0.62924,31.36671 0.051,11.71515 -3.88456,25.52133 -5.26288,35.33369 -0.53038,3.77588 -0.47975,7.41561 -1.06608,8.00503 -0.58631,0.58941 -2.29399,6.01155 -3.7948,12.04919 -1.50094,6.03764 -3.46036,12.39817 -4.35434,14.13453 -1.54049,2.99198 -2.29096,6.0826 -3.83281,15.78498 -0.36785,2.31512 -1.09236,5.86674 -1.6098,7.89249 -0.51755,2.02574 -1.20876,4.98543 -1.53599,6.57707 -0.63008,3.06379 -1.1739,3.3344 -3.69569,1.83906 z M 37.717421,460.64957 c -0.976281,-4.19619 -2.303184,-8.3512 -3.078499,-11.74478 -0.775316,-3.39359 -1.901577,-31.18089 -0.895823,-49.0274 0.471813,-5.27158 -2.59555,-5.18943 4.581444,-7.8717 1.295436,-0.29999 5.326159,-1.22037 8.957167,-2.04527 3.631007,-0.82489 7.27578,-2.06208 8.099489,-2.74931 0.823718,-0.68723 2.227384,-0.968 3.11926,-0.62396 0.891877,0.34404 3.606512,-0.11382 6.03253,-1.01749 2.426007,-0.90366 6.059663,-2.02152 8.074785,-2.48412 2.015121,-0.46262 9.08113,-2.31238 15.702245,-4.11058 15.334131,-4.16454 90.448881,-23.07657 99.447531,-25.03842 3.74237,-0.8159 10.80838,-2.63678 15.70224,-4.04639 12.81848,-3.69222 51.32508,-13.05299 56.79576,-13.80678 3.86933,-0.53314 4.77112,-0.32301 5.3723,1.25191 0.46015,1.20543 0.0425,2.52734 -1.15024,3.64084 -1.02999,0.96155 -13.31971,8.33316 -27.31048,16.38137 -35.41263,20.37112 -34.88091,20.07074 -38.76042,21.89795 -1.91558,0.90221 -5.54011,3.0361 -8.05449,4.74198 -2.51439,1.70589 -6.5999,4.08889 -9.07893,5.29558 -2.47902,1.20669 -5.92051,3.01147 -7.64776,4.01061 -1.72724,0.99914 -8.79325,4.95976 -15.70224,8.8014 -6.90899,3.84162 -14.21053,7.92742 -16.22565,9.07956 -2.01512,1.15213 -10.2588,5.87134 -18.31928,10.48711 -8.06049,4.61577 -16.77523,9.58164 -19.36611,11.03527 -2.59087,1.45363 -13.809576,7.80264 -24.930463,14.10891 -23.680542,13.42842 -38.162615,21.38767 -38.99562,21.43173 -0.326534,0.0172 -1.392475,-3.40185 -2.368746,-7.59802 z M 727.39129,365.01026 c -4.03024,-0.50792 -14.8648,-2.07525 -24.07678,-3.48294 -34.90975,-5.3346 -45.36619,-6.89507 -57.05146,-8.51396 -6.62112,-0.9173 -17.45567,-2.56488 -24.07679,-3.66129 -6.62111,-1.0964 -16.04245,-2.50701 -20.93632,-3.13474 -4.89386,-0.6277 -17.37714,-2.51643 -27.74062,-4.19719 -26.83224,-4.35165 -37.77665,-6.05768 -54.43444,-8.48532 -8.06049,-1.17471 -17.71737,-2.61359 -21.45974,-3.19751 -3.74237,-0.58393 -11.51498,-1.71722 -17.27246,-2.51844 -5.75749,-0.80122 -14.70777,-2.16671 -19.88951,-3.03444 -5.18174,-0.86772 -14.83862,-2.35014 -21.45973,-3.29425 -6.62112,-0.94412 -16.51353,-2.46946 -21.98315,-3.38968 -5.46961,-0.9202 -13.00669,-2.02741 -16.74905,-2.46045 -24.59702,-2.84619 -34.75441,-5.48246 -31.88303,-8.27494 0.55108,-0.53594 5.71262,-1.506 11.47011,-2.15571 5.75749,-0.6497 18.24077,-2.31752 27.74063,-3.70627 9.49985,-1.38875 24.57401,-3.51367 33.49812,-4.72203 8.9241,-1.20836 20.93632,-2.88954 26.69381,-3.73596 10.60018,-1.55833 38.94604,-5.26257 68.56646,-8.96027 8.92411,-1.11403 23.05612,-2.98159 31.40448,-4.15011 8.34836,-1.16851 20.59611,-2.79723 27.21723,-3.61938 11.57166,-1.43684 38.49212,-5.03567 79.55801,-10.6356 30.59112,-4.17154 32.35553,-4.36912 33.33933,-3.73309 1.38356,0.89452 13.76741,28.55543 13.76741,30.75124 0,0.56333 1.14741,3.48105 2.54983,6.48383 4.59469,9.83805 6.48136,15.75886 9.45222,29.66322 0.98925,4.63025 2.20345,10.07606 2.69807,12.10181 0.49462,2.02574 1.38557,7.47156 1.98005,12.10182 0.59439,4.63026 1.37908,9.48414 1.74369,10.78641 0.75977,2.71336 0.0565,2.77865 -12.66637,1.17524 z M 45.944213,333.35937 c 0.412561,-3.01551 1.113959,-6.21197 1.558658,-7.10325 0.444697,-0.89126 1.847389,-5.40887 3.117093,-10.03913 3.535036,-12.89135 13.892476,-40.68855 15.373773,-41.25997 0.724292,-0.2794 4.746328,0.0412 8.937843,0.71248 4.191525,0.67128 11.860556,1.88745 17.042296,2.7026 13.801484,2.17116 59.787474,9.632 74.323944,12.05842 6.90899,1.15324 18.45013,3.065 25.64699,4.24837 7.19687,1.18335 16.85374,2.84044 21.45973,3.68243 4.606,0.84199 16.14715,2.78233 25.647,4.31188 9.49985,1.52954 17.92571,3.39007 18.72413,4.13455 3.12092,2.91 0.5423,4.28018 -10.50823,5.58361 -5.95812,0.70276 -18.60555,2.43013 -28.10541,3.83857 -18.77867,2.78415 -31.51942,4.56535 -56.52807,7.90288 -8.92411,1.19095 -21.17186,2.85824 -27.21722,3.70505 -41.447287,5.80585 -81.92225,10.92644 -86.722269,10.97145 l -3.500385,0.0328 z M 358.16107,286.66996 c -0.86309,-1.90425 -0.90631,-3.23696 -0.14504,-4.47241 1.68821,-2.73977 17.31868,-15.83968 31.60678,-26.48966 6.1011,-4.5476 21.59396,-16.6475 30.00452,-23.43351 3.4545,-2.78722 8.40071,-6.73506 10.99158,-8.77296 13.53753,-10.6482 23.05224,-18.05609 26.21477,-20.41013 1.94392,-1.44696 5.20228,-4.08266 7.2408,-5.85711 2.03851,-1.77445 5.35513,-4.36274 7.37025,-5.75173 2.01512,-1.389 9.86633,-7.51396 17.44714,-13.61103 25.0744,-20.16679 32.17818,-25.79885 34.85858,-27.63676 1.45869,-1.00018 4.85685,-3.60471 7.55149,-5.78782 6.64105,-5.38038 30.41065,-24.19342 36.00395,-28.49622 5.26222,-4.04811 2.45411,-5.11944 23.47589,8.95631 12.06051,8.07549 17.52173,12.23877 28.78744,21.94574 2.303,1.98435 6.54261,5.20825 9.42135,7.16423 2.87875,1.95599 6.13146,4.56367 7.22826,5.79489 1.09679,1.23121 1.81364,2.23855 2.73536,2.23855 0.92171,0 3.8963,2.92009 3.8963,2.92009 0.70717,1.60607 2.8242,4.64522 4.7045,6.75371 1.88031,2.1085 5.53852,6.771 8.12939,10.36113 2.59088,3.59013 6.76787,8.7197 9.28222,11.39902 2.51445,2.67933 5.31814,6.05538 6.23055,7.50234 0.9124,1.44695 2.27379,3.34115 3.0253,4.20933 0.75151,0.86817 3.24732,4.17027 5.54613,7.33799 3.95361,5.44784 5.15389,8.43713 3.39472,8.45493 -2.84933,0.0289 -16.65735,2.73629 -29.57255,5.79848 -8.34836,1.9794 -24.12911,5.52174 -35.06834,7.87188 -10.93923,2.35014 -25.07124,5.40559 -31.40448,6.7899 -6.33324,1.38431 -12.92819,2.78046 -14.65543,3.10257 -3.69587,0.68923 -39.76466,8.47539 -60.71534,13.1066 -24.90312,5.5049 -44.73415,9.67934 -51.2175,10.78129 -3.41243,0.58001 -6.58421,1.29051 -7.04843,1.57893 -0.4642,0.28841 -4.26717,1.16717 -8.45101,1.95282 -8.89432,1.67014 -20.52674,4.13729 -30.11355,6.38683 -3.74238,0.87814 -9.63072,2.05038 -13.08521,2.60496 -3.4545,0.55459 -7.92963,1.50717 -9.94475,2.11683 -4.93679,1.49359 -28.31573,6.30255 -30.64013,6.30255 -1.02083,0 -2.40931,-1.22065 -3.08551,-2.71256 z m -100.35548,1.22033 c -0.45471,-0.45712 -15.55605,-4.54546 -66.33785,-17.95949 -5.73201,-1.51411 -13.74016,-3.64313 -17.79588,-4.73116 -4.05572,-1.08803 -25.51013,-6.77909 -47.67646,-12.64682 -22.16634,-5.86771 -40.693892,-11.05355 -41.172349,-11.52404 -1.297634,-1.27606 2.599771,-8.37261 13.610936,-24.78334 14.303433,-21.3174 23.701633,-32.59878 26.316743,-31.58999 1.74717,0.67398 14.12707,9.12068 29.50871,20.13354 6.04536,4.32832 14.7601,10.46766 19.36609,13.64295 4.606,3.17531 13.32073,9.28427 19.3661,13.57548 20.08479,14.25686 23.49137,16.65612 31.9279,22.48678 10.15959,7.0215 14.53666,10.09743 24.07677,16.91964 4.03024,2.88205 9.31254,6.565 11.73846,8.18431 4.50543,3.00741 5.46434,5.22414 3.23101,7.46924 -1.20086,1.20718 -5.24104,1.74689 -6.16018,0.8229 z m 5.32272,-42.81068 c -11.2271,-11.05068 -38.43124,-37.62316 -60.45363,-59.04994 -22.02239,-21.42677 -40.04072,-39.27993 -40.04072,-39.67364 0,-2.15978 19.94174,-17.49865 33.49812,-25.76623 2.59087,-1.58009 7.77261,-4.81003 11.51498,-7.17764 11.23645,-7.10876 30.50997,-16.877361 31.41316,-15.921465 0.46436,0.491461 3.0698,7.760025 5.78986,16.152375 2.72007,8.39235 10.4863,32.06982 17.2583,52.6166 30.53304,92.63964 30.47955,92.45804 28.64856,97.25464 -0.39339,1.03056 -1.88857,1.66321 -3.92556,1.661 -2.85954,-0.003 -5.96175,-2.6332 -23.70307,-20.0957 z m 77.96601,18.34852 c -1.18322,-1.18945 -1.54877,-2.71994 -1.14017,-4.77366 0.33077,-1.66259 6.45192,-17.80414 13.60255,-35.87011 7.15062,-18.06598 17.11074,-43.26531 22.13359,-55.99853 5.02286,-12.7332 10.48633,-26.03845 12.14104,-29.5672 1.6547,-3.52874 3.00856,-7.02936 3.00856,-7.77914 0,-0.74979 1.60881,-5.20265 3.57514,-9.89525 3.98368,-9.50697 8.78408,-21.766415 15.25408,-38.95647 7.03845,-18.700334 5.58886,-17.265634 17.10269,-16.927035 5.40728,0.159017 10.88844,0.857798 12.18036,1.552853 1.29192,0.695064 5.24495,1.694738 8.78452,2.221514 11.60455,1.727046 21.99884,3.832961 30.51236,6.181904 8.89208,1.975228 14.66409,1.906743 24.00931,5.224061 3.925,1.648741 17.75643,7.985106 23.88253,9.209537 4.3525,0.869931 3.57687,3.620001 -2.61704,9.278926 -3.02268,2.7616 -12.09072,11.25576 -20.15121,18.8759 -8.06048,7.62014 -18.42396,17.3517 -23.02995,21.62568 -4.606,4.274 -10.02327,9.48711 -12.03839,11.5847 -2.01512,2.09759 -11.90753,11.59366 -21.98314,21.10239 -10.0756,9.50872 -22.95176,21.79308 -28.61368,27.29858 -16.65945,16.19922 -20.48857,19.84979 -35.29805,33.65222 -7.74184,7.21539 -18.83623,17.75185 -24.65418,23.41439 -10.84431,10.55458 -13.37204,11.85095 -16.66092,8.54474 z m -28.99395,-9.03565 c -1.72844,-1.35714 -3.50345,-9.28427 -11.25151,-50.24886 -2.24417,-11.86504 -6.66504,-34.59542 -9.82417,-50.51194 -15.01644,-75.656819 -14.1818,-71.126845 -13.33,-72.347593 0.33685,-0.482756 2.73226,-1.507686 5.32313,-2.277635 2.59088,-0.769939 7.53708,-2.274595 10.99157,-3.343691 7.40667,-2.292201 22.79004,-5.803307 34.54493,-7.884557 4.606,-0.815504 10.72987,-1.97127 13.60862,-2.568374 2.87874,-0.597093 10.29805,-1.292189 16.48736,-1.544665 11.18761,-0.456349 11.25326,-0.444856 11.25326,1.969555 0,1.335724 -0.96822,5.225628 -2.15162,8.644234 -1.1834,3.418618 -2.537,8.10985 -3.00801,10.424981 -0.85764,4.215474 -12.37316,49.030855 -15.14249,58.930595 -0.80953,2.89392 -3.68218,13.78554 -6.38366,24.20363 -5.34745,20.62214 -8.90926,34.1724 -14.10735,53.66894 -1.85176,6.94539 -4.45598,16.78697 -5.78716,21.87016 -1.33117,5.08321 -2.994,9.93709 -3.69518,10.78641 -1.56055,1.89027 -5.2682,2.00296 -7.52772,0.22881 z"
       id="path4192"
       inkscape:connector-curvature="0"
       sodipodi:nodetypes="ssssssssssssscsssssssssssssssssssccssssssssssssssssssssssssssscssszzcssssssscsssssssssssssssscsssssssssssssssssssssssssssssssssscssssssssssssssssssssscssscssssssssssscssssccsssssssssssssssssssssssssssssssssssssssssssssszccsscccccsszccssssssssssssssssssssscssssssssssssssssssssssscsscsccssssssssssssssssscssssssssssssssssssssscsscsssssssssssssssssssssssssssssssssssssscssssssssssssccssssssssssssssssssssssssssss" />
  </g>
</svg>
